HIERARCHY
ROOT ui
{
	 OFFSET 0 0 0
	 CHANNELS 3 XPosition YPosition Z Position
	 EndSite
	 {
	 OFFSET 0 -1 0
	 }
}
ROOT li
{
	 OFFSET 0 0 0
	 CHANNELS 3 XPosition YPosition Z Position
	 EndSite
	 {
	 OFFSET 0 -1 0
	 }
}
ROOT ul
{
	 OFFSET 0 0 0
	 CHANNELS 3 XPosition YPosition Z Position
	 EndSite
	 {
	 OFFSET 0 -1 0
	 }
}
ROOT ll
{
	 OFFSET 0 0 0
	 CHANNELS 3 XPosition YPosition Z Position
	 EndSite
	 {
	 OFFSET 0 -1 0
	 }
}
ROOT tt
{
	 OFFSET 0 0 0
	 CHANNELS 3 XPosition YPosition Z Position
	 EndSite
	 {
	 OFFSET 0 -1 0
	 }
}
ROOT tb
{
	 OFFSET 0 0 0
	 CHANNELS 3 XPosition YPosition Z Position
	 EndSite
	 {
	 OFFSET 0 -1 0
	 }
}
ROOT td
{
	 OFFSET 0 0 0
	 CHANNELS 3 XPosition YPosition Z Position
	 EndSite
	 {
	 OFFSET 0 -1 0
	 }
}
ROOT v
{
	 OFFSET 0 0 0
	 CHANNELS 3 XPosition YPosition Z Position
	 EndSite
	 {
	 OFFSET 0 -1 0
	 }
}
ROOT bn
{
	 OFFSET 0 0 0
	 CHANNELS 3 XPosition YPosition Z Position
	 EndSite
	 {
	 OFFSET 0 -1 0
	 }
}
MOTION
Frames: 13
Frame Time: 0.002
-0.008199088096618653	3.5071301460266115E-4	0		0.4331900329589844	-2.368160400390625	0		-1.0481793212890624	0.009129234313964844	0		-0.8309807739257813	-2.371197265625	0		1.751556640625	-0.6627215576171875	0		3.38771533203125	-0.24092800903320313	0		4.72868310546875	-0.11196951293945312	0		5.55395361328125	0.11232642364501953	0		-0.09633649444580078	5.9732060546875	0		
-0.009355742454528809	-0.003297766923904419	0		0.4610983581542969	-2.37320458984375	0		-0.978400146484375	4.387040138244629E-4	0		-0.7591475830078125	-2.381908447265625	0		1.7504229736328125	-0.6663090209960938	0		3.3624560546875	-0.2521178131103516	0		4.727501953125	-0.11745365905761719	0		5.56170703125	0.10274369812011719	0		-0.09740243530273437	5.99055224609375	0		
-0.0595709228515625	-0.001245110034942627	0		0.4458646850585937	-2.37862939453125	0		-1.0516131591796876	0.002782227039337158	0		-0.829219970703125	-2.37560009765625	0		1.7532117919921875	-0.6659432983398438	0		3.359343994140625	-0.24361093139648438	0		4.7282431640625	-0.1189539566040039	0		5.55448388671875	0.10438578796386719	0		-0.09484946441650391	5.9908525390625	0		
7.475899904966355E-5	0.0012591869831085204	0		0.45058624267578123	-2.376331298828125	0		-1.0339775390625	0.004843729972839356	0		-0.8145982055664063	-2.380487548828125	0		1.767857421875	-0.6647396850585937	0		3.391817626953125	-0.25360301208496094	0		4.73494091796875	-0.11253228759765625	0		5.5711865234375	0.1116956787109375	0		-0.11039517974853516	5.99541357421875	0		
0.015425941467285157	-0.004607284069061279	0		0.46606292724609377	-2.379182373046875	0		-1.02748486328125	0.009066661834716798	0		-0.7981355590820313	-2.38439697265625	0		1.7715145263671874	-0.6503773803710937	0		3.3834755859375	-0.23801509094238282	0		4.73940966796875	-0.11007890319824219	0		5.57361962890625	0.11220669555664063	0		-0.09022635650634765	5.99147265625	0		
0.004763472080230713	0.0018946449756622314	0		0.4735216064453125	-2.36991796875	0		-1.03521826171875	0.010491477966308593	0		-0.8117728881835937	-2.381880126953125	0		1.7676907958984376	-0.6569126586914062	0		3.37255419921875	-0.2503966369628906	0		4.73758154296875	-0.11554129791259765	0		5.5617705078125	0.10591313934326171	0		-0.12225928497314453	5.9862666015625	0		
-0.05021917343139649	1.5247000381350518E-5	0		0.4466557922363281	-2.36917431640625	0		-1.042261962890625	0.0039063560962677	0		-0.7825737915039063	-2.376963134765625	0		1.76976611328125	-0.6565328369140625	0		3.377699951171875	-0.24400689697265626	0		4.73963916015625	-0.11506432342529296	0		5.5638212890625	0.10641706848144532	0		-0.0825589828491211	5.9750537109375	0		
0.004606122016906738	-0.0014032779932022096	0		0.4833890380859375	-2.38232470703125	0		-1.0404176025390626	0.00419727897644043	0		-0.8117919311523437	-2.386230224609375	0		1.768575439453125	-0.6601119384765625	0		3.396368896484375	-0.256814453125	0		4.7353759765625	-0.12250860595703125	0		5.57075927734375	0.11384333038330079	0		-0.08466285705566406	5.9924287109375	0		
-0.07374337005615235	0.001035770058631897	0		0.44107833862304685	-2.382373291015625	0		-1.0337337646484375	0.00842020606994629	0		-0.7961360473632813	-2.389125244140625	0		1.7732791748046874	-0.6557783813476562	0		3.39128466796875	-0.23629502868652344	0		4.756173828125	-0.1103114013671875	0		5.5813837890625	0.1142057342529297	0		-0.08321073150634765	5.99275	0		
0.014745445251464843	0.006145464897155762	0		0.46673654174804685	-2.36937353515625	0		-1.02827880859375	0.0116585054397583	0		-0.7926286010742187	-2.3868525390625	0		1.780807861328125	-0.6484906616210937	0		3.38849658203125	-0.25082135009765627	0		4.75350732421875	-0.11580086517333985	0		5.58279443359375	0.11468284606933593	0		-0.11604279327392578	5.98754443359375	0		
-0.031210285186767578	-0.004879765987396241	0		0.4639350280761719	-2.37398486328125	0		-1.027072509765625	0.011952527046203613	0		-0.7334217529296875	-2.391357421875	0		1.7759344482421875	-0.6550403442382813	0		3.40890234375	-0.23667886352539064	0		4.74574560546875	-0.11323322296142578	0		5.57502685546875	0.11727183532714844	0		-0.08091031646728515	5.99338916015625	0		
0.013922327041625977	0.0038249130249023437	0		0.48105755615234375	-2.369879638671875	0		-1.0351571044921875	0.005369777202606201	0		-0.817164306640625	-2.376881591796875	0		1.7769620361328125	-0.654681640625	0		3.37278466796875	-0.24576722717285157	0		4.74676025390625	-0.11280361938476563	0		5.58089697265625	0.10765288543701172	0		-0.08004144287109374	5.993703125	0		
-0.04228089904785156	0.0019246079921722411	0		0.46386151123046876	-2.375309326171875	0		-1.0383792724609375	0.0017127519845962524	0		-0.7344943237304687	-2.39272314453125	0		1.7778094482421876	-0.654332275390625	0		3.373623046875	-0.2453826141357422	0		4.752484375	-0.12045708465576171	0		5.5817275390625	0.10808628845214843	0		-0.07836872863769531	5.991998046875	0		
